<?xml version="1.0" encoding="iso-8859-1"?>
<!-- Generator: Adobe Illustrator 19.0.0, SVG Export Plug-In . SVG Version: 6.00 Build 0)  -->
<svg version="1.1" id="Layer_1" xmlns="http://www.w3.org/2000/svg" xmlns:xlink="http://www.w3.org/1999/xlink" x="0px" y="0px"
	 viewBox="0 0 512.001 512.001" style="enable-background:new 0 0 512.001 512.001;" xml:space="preserve">
<g>
	<g>
		<path d="M510.754,63.577c-1.787-3.276-5.221-5.313-8.952-5.313H225.82c-3.469,0-6.699,1.763-8.576,4.679L6.641,390.189
			c-8.282,12.868-8.85,28.571-1.521,42.005c7.331,13.433,20.843,21.454,36.146,21.454h219.207c3.469,0,6.699-1.763,8.576-4.679
			L510.378,73.98C512.397,70.842,512.542,66.853,510.754,63.577z M254.908,433.251H41.266c-7.723,0-14.542-4.048-18.241-10.827
			c-3.699-6.779-3.412-14.703,0.767-21.197l86.928-135.073h251.725L254.908,433.251z M375.573,245.757H123.847L231.385,78.66
			h251.726L375.573,245.757z"/>
	</g>
</g>
<g>
	<g>
		<path d="M352.668,433.34h-38.449c-5.633,0-10.198,4.566-10.198,10.198s4.566,10.198,10.198,10.198h38.449
			c5.633,0,10.198-4.566,10.198-10.198S358.3,433.34,352.668,433.34z"/>
	</g>
</g>
<g>
	<g>
		<path d="M413.253,433.34h-17.477c-5.633,0-10.198,4.566-10.198,10.198s4.566,10.198,10.198,10.198h17.477
			c5.633,0,10.198-4.566,10.198-10.198S418.886,433.34,413.253,433.34z"/>
	</g>
</g>
<g>
	<g>
		<path d="M462.917,433.34h-6.554c-5.633,0-10.198,4.566-10.198,10.198s4.566,10.198,10.198,10.198h6.554
			c5.633,0,10.198-4.566,10.198-10.198S468.549,433.34,462.917,433.34z"/>
	</g>
</g>
<g>
	<g>
		<path d="M125.259,294.044c-4.702-3.099-11.028-1.802-14.129,2.9l-3.073,4.661c-3.1,4.703-1.802,11.029,2.9,14.129
			c1.73,1.14,3.678,1.685,5.605,1.685c3.313,0,6.564-1.612,8.524-4.585l3.073-4.661C131.26,303.47,129.961,297.145,125.259,294.044z
			"/>
	</g>
</g>
<g>
	<g>
		<path d="M101.443,330.164c-4.701-3.101-11.028-1.802-14.128,2.9l-46.093,69.907c-3.1,4.702-1.802,11.028,2.9,14.128
			c1.729,1.14,3.677,1.685,5.604,1.685c3.313,0,6.564-1.612,8.524-4.586l46.093-69.907
			C107.444,339.59,106.146,333.264,101.443,330.164z"/>
	</g>
</g>
<g>
</g>
<g>
</g>
<g>
</g>
<g>
</g>
<g>
</g>
<g>
</g>
<g>
</g>
<g>
</g>
<g>
</g>
<g>
</g>
<g>
</g>
<g>
</g>
<g>
</g>
<g>
</g>
<g>
</g>
</svg>
